<?xml version="1.0" encoding="UTF-8"?>
<!DOCTYPE svg PUBLIC "-//W3C//DTD SVG 1.1//EN" "http://www.w3.org/Graphics/SVG/1.1/DTD/svg11.dtd">
<svg xmlns="http://www.w3.org/2000/svg" version="1.1" width="618px" height="618px" style="shape-rendering:geometricPrecision; text-rendering:geometricPrecision; image-rendering:optimizeQuality; fill-rule:evenodd; clip-rule:evenodd" xmlns:xlink="http://www.w3.org/1999/xlink">
<g><path style="opacity:1" fill="#cd6756" d="M -0.5,-0.5 C 205.5,-0.5 411.5,-0.5 617.5,-0.5C 617.5,205.5 617.5,411.5 617.5,617.5C 411.5,617.5 205.5,617.5 -0.5,617.5C -0.5,411.5 -0.5,205.5 -0.5,-0.5 Z"/></g>
<g><path style="opacity:1" fill="#030101" d="M 407.5,208.5 C 406.101,204.312 406.601,200.312 409,196.5C 413.548,185.892 419.715,176.392 427.5,168C 445.089,156.855 459.589,160.022 471,177.5C 482.262,195.756 480.596,212.756 466,228.5C 457.98,235.512 449.147,241.345 439.5,246C 436.07,246.956 432.57,247.456 429,247.5C 422.746,246.747 416.579,245.581 410.5,244C 404.833,243.833 399.167,243.667 393.5,243.5C 374.411,244.323 355.411,245.99 336.5,248.5C 318.255,249.965 300.588,247.465 283.5,241C 278.148,238.661 273.148,235.828 268.5,232.5C 265.196,230.027 262.362,227.027 260,223.5C 248.718,202.317 239.384,180.317 232,157.5C 230.833,156.333 229.667,155.167 228.5,154C 210.36,147.599 191.693,144.932 172.5,146C 171.167,146.667 169.833,147.333 168.5,148C 165.445,152.135 162.945,156.635 161,161.5C 158.011,165.491 154.178,168.324 149.5,170C 141.833,170.333 134.167,170.667 126.5,171C 125.584,171.374 124.75,171.874 124,172.5C 124.947,179.74 125.614,187.074 126,194.5C 129.721,200.872 135.221,205.039 142.5,207C 156.356,207.723 168.19,212.89 178,222.5C 187.873,236.914 195.04,252.581 199.5,269.5C 202.547,281.993 204.714,294.66 206,307.5C 208.049,319.603 213.716,329.603 223,337.5C 225.433,341.367 227.6,345.367 229.5,349.5C 231.597,358.606 229.263,366.44 222.5,373C 210.044,378.728 197.711,384.728 185.5,391C 178,395.833 171.833,402 167,409.5C 163.894,418.036 165.394,425.536 171.5,432C 173.769,432.758 175.936,432.591 178,431.5C 178.444,424.745 178.111,418.078 177,411.5C 190.741,394.56 208.241,388.894 229.5,394.5C 234.627,394.43 239.127,392.763 243,389.5C 249.667,377.133 258.834,367.133 270.5,359.5C 289.364,348.658 309.697,342.658 331.5,341.5C 344.449,340.316 357.449,340.483 370.5,342C 372.5,343 374.5,344 376.5,345C 383.764,354.267 391.764,362.934 400.5,371C 415.37,383.682 430.87,395.515 447,406.5C 457.738,421.843 461.738,438.843 459,457.5C 458.306,463.971 456.973,470.304 455,476.5C 453.28,487.1 457.78,490.934 468.5,488C 469,487.5 469.5,487 470,486.5C 470.167,483.333 470.333,480.167 470.5,477C 468.624,447.027 465.791,417.194 462,387.5C 459.091,380.676 455.424,374.342 451,368.5C 446.77,353.449 445.437,338.116 447,322.5C 447.947,308.16 448.947,293.827 450,279.5C 452.029,276.404 454.862,274.738 458.5,274.5C 461.643,275.134 464.143,276.8 466,279.5C 464.917,304.479 464.584,329.479 465,354.5C 465.667,357.167 466.333,359.833 467,362.5C 475.003,372.843 480.003,384.51 482,397.5C 483.234,425.57 485.4,453.57 488.5,481.5C 485.744,501.398 474.41,509.231 454.5,505C 443.412,500.827 437.412,492.827 436.5,481C 438.132,472.443 439.965,463.943 442,455.5C 443.904,441.563 441.071,428.73 433.5,417C 425.028,411.361 416.695,405.528 408.5,399.5C 406.768,425.231 401.601,450.231 393,474.5C 388.225,485.576 381.392,495.076 372.5,503C 360.158,510.257 349.325,508.424 340,497.5C 334.884,489.219 334.217,480.552 338,471.5C 345.922,463.656 351.256,454.323 354,443.5C 357.197,430.003 358.53,416.336 358,402.5C 352.402,387.872 346.902,373.205 341.5,358.5C 322.055,357.985 303.555,361.985 286,370.5C 290.174,380.674 292.84,391.341 294,402.5C 294.831,430.516 294.497,458.516 293,486.5C 287.291,502.108 276.124,509.274 259.5,508C 241.386,500.608 236.552,488.108 245,470.5C 252.211,465.745 255.378,459.078 254.5,450.5C 254.455,446.111 253.955,441.777 253,437.5C 250.065,428.194 247.231,418.861 244.5,409.5C 239.576,410.646 234.576,411.313 229.5,411.5C 222.253,409.896 214.919,409.396 207.5,410C 202.273,411.436 197.939,414.103 194.5,418C 195.962,425.287 195.462,432.454 193,439.5C 186.191,449.411 177.024,452.244 165.5,448C 156.245,443.391 150.745,435.891 149,425.5C 146.798,414.113 149.132,403.78 156,394.5C 163.335,385.499 172.168,378.333 182.5,373C 192.048,368.392 201.715,364.059 211.5,360C 214.181,355.854 213.681,352.021 210,348.5C 199.572,339.051 192.906,327.385 190,313.5C 188.687,284.565 180.354,257.899 165,233.5C 157.751,227.22 149.251,224.053 139.5,224C 114.932,216.729 103.932,200.229 106.5,174.5C 107.117,165.102 111.784,158.602 120.5,155C 128.782,153.836 137.116,153.169 145.5,153C 149.012,142.154 156.012,134.488 166.5,130C 189.767,127.408 212.434,130.075 234.5,138C 241,140.5 245.5,145 248,151.5C 255.245,173.567 264.245,194.9 275,215.5C 283.271,223.376 293.104,228.21 304.5,230C 312.969,230.984 321.469,231.484 330,231.5C 351.459,229.431 372.959,227.764 394.5,226.5C 405.047,225.946 415.381,227.113 425.5,230C 428.167,230.667 430.833,230.667 433.5,230C 445.162,225.337 453.995,217.504 460,206.5C 461.368,203.262 461.701,199.928 461,196.5C 453.025,174.128 442.692,172.795 430,192.5C 426.946,198.776 423.779,204.943 420.5,211C 415.498,213.433 411.165,212.599 407.5,208.5 Z"/></g>
<g><path style="opacity:1" fill="#a47838" d="M 458.5,274.5 C 454.862,274.738 452.029,276.404 450,279.5C 448.947,293.827 447.947,308.16 447,322.5C 445.437,338.116 446.77,353.449 451,368.5C 455.424,374.342 459.091,380.676 462,387.5C 465.791,417.194 468.624,447.027 470.5,477C 470.333,480.167 470.167,483.333 470,486.5C 469.5,487 469,487.5 468.5,488C 457.78,490.934 453.28,487.1 455,476.5C 456.973,470.304 458.306,463.971 459,457.5C 461.738,438.843 457.738,421.843 447,406.5C 430.87,395.515 415.37,383.682 400.5,371C 391.764,362.934 383.764,354.267 376.5,345C 374.5,344 372.5,343 370.5,342C 357.449,340.483 344.449,340.316 331.5,341.5C 326.217,310.099 327.884,279.099 336.5,248.5C 355.411,245.99 374.411,244.323 393.5,243.5C 399.167,243.667 404.833,243.833 410.5,244C 416.579,245.581 422.746,246.747 429,247.5C 432.57,247.456 436.07,246.956 439.5,246C 449.147,241.345 457.98,235.512 466,228.5C 480.596,212.756 482.262,195.756 471,177.5C 459.589,160.022 445.089,156.855 427.5,168C 419.715,176.392 413.548,185.892 409,196.5C 406.601,200.312 406.101,204.312 407.5,208.5C 404.676,206.2 402.843,203.2 402,199.5C 401.055,176.672 409.555,158.172 427.5,144C 446.468,133.61 465.135,134.276 483.5,146C 494.907,153.08 503.074,162.913 508,175.5C 509.881,194.523 504.881,211.523 493,226.5C 487.015,234.483 480.348,241.817 473,248.5C 466.349,256.134 461.515,264.801 458.5,274.5 Z"/></g>
<g><path style="opacity:1" fill="#a47838" d="M 268.5,232.5 C 264.53,237.315 260.697,242.315 257,247.5C 241.475,264.178 222.308,271.511 199.5,269.5C 195.04,252.581 187.873,236.914 178,222.5C 168.19,212.89 156.356,207.723 142.5,207C 135.221,205.039 129.721,200.872 126,194.5C 125.614,187.074 124.947,179.74 124,172.5C 124.75,171.874 125.584,171.374 126.5,171C 134.167,170.667 141.833,170.333 149.5,170C 154.178,168.324 158.011,165.491 161,161.5C 162.945,156.635 165.445,152.135 168.5,148C 169.833,147.333 171.167,146.667 172.5,146C 191.693,144.932 210.36,147.599 228.5,154C 229.667,155.167 230.833,156.333 232,157.5C 239.384,180.317 248.718,202.317 260,223.5C 262.362,227.027 265.196,230.027 268.5,232.5 Z"/></g>
<g><path style="opacity:1" fill="#d12f27" d="M 268.5,232.5 C 273.148,235.828 278.148,238.661 283.5,241C 300.588,247.465 318.255,249.965 336.5,248.5C 327.884,279.099 326.217,310.099 331.5,341.5C 309.697,342.658 289.364,348.658 270.5,359.5C 258.194,351.101 244.528,347.767 229.5,349.5C 227.6,345.367 225.433,341.367 223,337.5C 213.716,329.603 208.049,319.603 206,307.5C 204.714,294.66 202.547,281.993 199.5,269.5C 222.308,271.511 241.475,264.178 257,247.5C 260.697,242.315 264.53,237.315 268.5,232.5 Z"/></g>
<g><path style="opacity:1" fill="#fefdfd" d="M 264.5,278.5 C 270.167,278.5 275.833,278.5 281.5,278.5C 281.5,282.167 281.5,285.833 281.5,289.5C 285.167,289.5 288.833,289.5 292.5,289.5C 292.5,295.167 292.5,300.833 292.5,306.5C 288.833,306.5 285.167,306.5 281.5,306.5C 281.5,310.167 281.5,313.833 281.5,317.5C 275.833,317.5 270.167,317.5 264.5,317.5C 264.5,313.833 264.5,310.167 264.5,306.5C 260.833,306.5 257.167,306.5 253.5,306.5C 253.5,300.833 253.5,295.167 253.5,289.5C 257.167,289.5 260.833,289.5 264.5,289.5C 264.5,285.833 264.5,282.167 264.5,278.5 Z"/></g>
<g><path style="opacity:1" fill="#df6d67" d="M 264.5,278.5 C 264.5,282.167 264.5,285.833 264.5,289.5C 260.833,289.5 257.167,289.5 253.5,289.5C 256.625,288.521 259.958,288.187 263.5,288.5C 263.187,284.958 263.521,281.625 264.5,278.5 Z"/></g>
<g><path style="opacity:1" fill="#a27738" d="M 229.5,349.5 C 244.528,347.767 258.194,351.101 270.5,359.5C 258.834,367.133 249.667,377.133 243,389.5C 239.127,392.763 234.627,394.43 229.5,394.5C 208.241,388.894 190.741,394.56 177,411.5C 178.111,418.078 178.444,424.745 178,431.5C 175.936,432.591 173.769,432.758 171.5,432C 165.394,425.536 163.894,418.036 167,409.5C 171.833,402 178,395.833 185.5,391C 197.711,384.728 210.044,378.728 222.5,373C 229.263,366.44 231.597,358.606 229.5,349.5 Z"/></g>
<g><path style="opacity:1" fill="#67442e" d="M 360.5,358.5 C 362.527,358.338 364.527,358.505 366.5,359C 373.597,368.1 381.431,376.6 390,384.5C 391.184,409.359 388.184,433.692 381,457.5C 377.72,469.761 371.554,480.261 362.5,489C 358.698,491.035 355.531,490.202 353,486.5C 352.333,484.5 352.333,482.5 353,480.5C 364.245,467.665 370.912,452.665 373,435.5C 374.993,423.564 375.66,411.564 375,399.5C 369.588,386.016 364.755,372.349 360.5,358.5 Z"/></g>
<g><path style="opacity:1" fill="#67442d" d="M 270.5,381.5 C 274.124,387.543 276.291,394.21 277,401.5C 277.724,428.846 277.391,456.179 276,483.5C 272.107,490.716 266.607,492.549 259.5,489C 257.114,486.293 256.948,483.46 259,480.5C 265.246,475.695 269.246,469.362 271,461.5C 271.667,454.5 271.667,447.5 271,440.5C 267.543,426.296 263.377,412.296 258.5,398.5C 261.267,391.967 265.267,386.3 270.5,381.5 Z"/></g>
</svg>
