<?xml version="1.0" encoding="UTF-8"?>
<!DOCTYPE svg PUBLIC "-//W3C//DTD SVG 1.1//EN" "http://www.w3.org/Graphics/SVG/1.1/DTD/svg11.dtd">
<svg xmlns="http://www.w3.org/2000/svg" version="1.1" width="618px" height="618px" style="shape-rendering:geometricPrecision; text-rendering:geometricPrecision; image-rendering:optimizeQuality; fill-rule:evenodd; clip-rule:evenodd" xmlns:xlink="http://www.w3.org/1999/xlink">
<g><path style="opacity:1" fill="#110c06" d="M -0.5,-0.5 C 205.5,-0.5 411.5,-0.5 617.5,-0.5C 617.5,205.5 617.5,411.5 617.5,617.5C 411.5,617.5 205.5,617.5 -0.5,617.5C -0.5,411.5 -0.5,205.5 -0.5,-0.5 Z"/></g>
<g><path style="opacity:1" fill="#010000" d="M 407.5,207.5 C 406.489,205.598 406.322,203.598 407,201.5C 411.437,188.78 418.27,177.613 427.5,168C 445.089,156.855 459.589,160.022 471,177.5C 482.262,195.756 480.596,212.756 466,228.5C 457.98,235.512 449.147,241.345 439.5,246C 436.07,246.956 432.57,247.456 429,247.5C 422.746,246.747 416.579,245.581 410.5,244C 404.833,243.833 399.167,243.667 393.5,243.5C 374.411,244.323 355.411,245.99 336.5,248.5C 318.255,249.965 300.588,247.465 283.5,241C 278.148,238.661 273.148,235.828 268.5,232.5C 265.196,230.027 262.362,227.027 260,223.5C 248.718,202.317 239.384,180.317 232,157.5C 230.833,156.333 229.667,155.167 228.5,154C 210.36,147.599 191.693,144.932 172.5,146C 171.167,146.667 169.833,147.333 168.5,148C 165.445,152.135 162.945,156.635 161,161.5C 158.011,165.491 154.178,168.324 149.5,170C 141.833,170.333 134.167,170.667 126.5,171C 125.584,171.374 124.75,171.874 124,172.5C 124.947,179.74 125.614,187.074 126,194.5C 129.721,200.872 135.221,205.039 142.5,207C 156.356,207.723 168.19,212.89 178,222.5C 187.873,236.914 195.04,252.581 199.5,269.5C 202.547,281.993 204.714,294.66 206,307.5C 208.049,319.603 213.716,329.603 223,337.5C 225.433,341.367 227.6,345.367 229.5,349.5C 231.597,358.606 229.263,366.44 222.5,373C 210.044,378.728 197.711,384.728 185.5,391C 178,395.833 171.833,402 167,409.5C 163.894,418.036 165.394,425.536 171.5,432C 173.769,432.758 175.936,432.591 178,431.5C 178.444,424.745 178.111,418.078 177,411.5C 190.741,394.56 208.241,388.894 229.5,394.5C 234.627,394.43 239.127,392.763 243,389.5C 249.667,377.133 258.834,367.133 270.5,359.5C 289.364,348.658 309.697,342.658 331.5,341.5C 344.449,340.316 357.449,340.483 370.5,342C 372.5,343 374.5,344 376.5,345C 383.764,354.267 391.764,362.934 400.5,371C 415.37,383.682 430.87,395.515 447,406.5C 457.738,421.843 461.738,438.843 459,457.5C 458.306,463.971 456.973,470.304 455,476.5C 453.28,487.1 457.78,490.934 468.5,488C 469,487.5 469.5,487 470,486.5C 470.167,483.333 470.333,480.167 470.5,477C 468.624,447.027 465.791,417.194 462,387.5C 459.091,380.676 455.424,374.342 451,368.5C 446.77,353.449 445.437,338.116 447,322.5C 447.947,308.16 448.947,293.827 450,279.5C 452.029,276.404 454.862,274.738 458.5,274.5C 464.637,276.091 467.304,280.091 466.5,286.5C 464.713,309.472 464.213,332.472 465,355.5C 465.511,357.878 466.178,360.212 467,362.5C 475.285,373.078 480.285,385.078 482,398.5C 483.565,426.38 485.732,454.213 488.5,482C 485.846,501.188 474.846,508.854 455.5,505C 443.538,501.261 437.205,493.094 436.5,480.5C 437.373,474.342 438.873,468.342 441,462.5C 443.287,451.406 442.954,440.406 440,429.5C 438.61,425.053 436.444,421.053 433.5,417.5C 424.99,411.745 416.657,405.745 408.5,399.5C 407.312,424.58 402.479,448.913 394,472.5C 389.452,483.108 383.285,492.608 375.5,501C 362.072,510.453 349.906,508.953 339,496.5C 333.542,488.325 333.209,479.992 338,471.5C 340.771,467.61 343.771,463.943 347,460.5C 349.551,456.065 351.551,451.399 353,446.5C 355.905,434.001 357.738,421.334 358.5,408.5C 358.392,404.673 357.558,401.007 356,397.5C 350.94,384.987 346.273,372.321 342,359.5C 340.991,358.342 339.658,357.675 338,357.5C 325.653,358.636 313.487,360.803 301.5,364C 295.774,365.697 290.441,368.197 285.5,371.5C 289.846,380.372 292.679,389.705 294,399.5C 294.87,428.185 294.537,456.852 293,485.5C 288.194,501.631 277.361,509.131 260.5,508C 241.484,501.295 236.318,488.795 245,470.5C 248.038,467.797 250.705,464.797 253,461.5C 255.05,452.426 254.717,443.426 252,434.5C 249.362,426.253 246.529,418.086 243.5,410C 239.457,410.853 235.291,411.353 231,411.5C 225.318,410.964 219.651,410.297 214,409.5C 206.012,409.54 199.512,412.54 194.5,418.5C 196.253,426.469 195.42,434.136 192,441.5C 185.852,448.993 178.018,451.493 168.5,449C 157.725,445.329 151.225,437.829 149,426.5C 146.351,410.303 151.184,396.803 163.5,386C 177.329,375.082 192.663,366.749 209.5,361C 211.227,359.611 212.561,357.944 213.5,356C 211.223,349.717 207.39,344.55 202,340.5C 197.002,333.503 193.335,325.836 191,317.5C 189.201,286.774 180.201,258.441 164,232.5C 155.889,226.507 146.722,223.341 136.5,223C 113.632,215.299 103.632,199.299 106.5,175C 107.212,162.953 113.545,155.953 125.5,154C 132.167,153.667 138.833,153.333 145.5,153C 148.339,145.659 152.672,139.326 158.5,134C 165.353,129.605 172.853,127.438 181,127.5C 198.507,128.89 215.673,132.056 232.5,137C 236.873,138.713 240.707,141.213 244,144.5C 249.853,158.386 255.52,172.386 261,186.5C 265.061,195.622 269.394,204.622 274,213.5C 278.436,219.482 284.269,223.648 291.5,226C 297.943,228.555 304.61,230.222 311.5,231C 329.656,232.357 347.656,231.357 365.5,228C 387.066,223.887 408.399,224.72 429.5,230.5C 442.948,226.69 453.115,218.69 460,206.5C 461.895,202.185 461.895,197.852 460,193.5C 450.977,173.863 440.977,173.53 430,192.5C 427.207,198.897 424.04,205.064 420.5,211C 415.039,213.652 410.706,212.486 407.5,207.5 Z"/></g>
<g><path style="opacity:1" fill="#a37838" d="M 458.5,274.5 C 454.862,274.738 452.029,276.404 450,279.5C 448.947,293.827 447.947,308.16 447,322.5C 445.437,338.116 446.77,353.449 451,368.5C 455.424,374.342 459.091,380.676 462,387.5C 465.791,417.194 468.624,447.027 470.5,477C 470.333,480.167 470.167,483.333 470,486.5C 469.5,487 469,487.5 468.5,488C 457.78,490.934 453.28,487.1 455,476.5C 456.973,470.304 458.306,463.971 459,457.5C 461.738,438.843 457.738,421.843 447,406.5C 430.87,395.515 415.37,383.682 400.5,371C 391.764,362.934 383.764,354.267 376.5,345C 374.5,344 372.5,343 370.5,342C 357.449,340.483 344.449,340.316 331.5,341.5C 326.217,310.099 327.884,279.099 336.5,248.5C 355.411,245.99 374.411,244.323 393.5,243.5C 399.167,243.667 404.833,243.833 410.5,244C 416.579,245.581 422.746,246.747 429,247.5C 432.57,247.456 436.07,246.956 439.5,246C 449.147,241.345 457.98,235.512 466,228.5C 480.596,212.756 482.262,195.756 471,177.5C 459.589,160.022 445.089,156.855 427.5,168C 418.27,177.613 411.437,188.78 407,201.5C 406.322,203.598 406.489,205.598 407.5,207.5C 406.671,208.332 405.838,207.999 405,206.5C 400.687,196.711 400.353,186.711 404,176.5C 420.849,136.158 448.349,126.658 486.5,148C 510.915,166.139 515.415,188.639 500,215.5C 497,220.167 494,224.833 491,229.5C 482.333,239.5 473.667,249.5 465,259.5C 462.265,264.299 460.098,269.299 458.5,274.5 Z"/></g>
<g><path style="opacity:1" fill="#a47838" d="M 268.5,232.5 C 264.53,237.315 260.697,242.315 257,247.5C 241.475,264.178 222.308,271.511 199.5,269.5C 195.04,252.581 187.873,236.914 178,222.5C 168.19,212.89 156.356,207.723 142.5,207C 135.221,205.039 129.721,200.872 126,194.5C 125.614,187.074 124.947,179.74 124,172.5C 124.75,171.874 125.584,171.374 126.5,171C 134.167,170.667 141.833,170.333 149.5,170C 154.178,168.324 158.011,165.491 161,161.5C 162.945,156.635 165.445,152.135 168.5,148C 169.833,147.333 171.167,146.667 172.5,146C 191.693,144.932 210.36,147.599 228.5,154C 229.667,155.167 230.833,156.333 232,157.5C 239.384,180.317 248.718,202.317 260,223.5C 262.362,227.027 265.196,230.027 268.5,232.5 Z"/></g>
<g><path style="opacity:1" fill="#d12f27" d="M 268.5,232.5 C 273.148,235.828 278.148,238.661 283.5,241C 300.588,247.465 318.255,249.965 336.5,248.5C 327.884,279.099 326.217,310.099 331.5,341.5C 309.697,342.658 289.364,348.658 270.5,359.5C 258.194,351.101 244.528,347.767 229.5,349.5C 227.6,345.367 225.433,341.367 223,337.5C 213.716,329.603 208.049,319.603 206,307.5C 204.714,294.66 202.547,281.993 199.5,269.5C 222.308,271.511 241.475,264.178 257,247.5C 260.697,242.315 264.53,237.315 268.5,232.5 Z"/></g>
<g><path style="opacity:1" fill="#fefdfd" d="M 264.5,278.5 C 270.167,278.5 275.833,278.5 281.5,278.5C 281.5,282.167 281.5,285.833 281.5,289.5C 285.167,289.5 288.833,289.5 292.5,289.5C 292.5,295.167 292.5,300.833 292.5,306.5C 288.833,306.5 285.167,306.5 281.5,306.5C 281.5,310.167 281.5,313.833 281.5,317.5C 275.833,317.5 270.167,317.5 264.5,317.5C 264.5,313.833 264.5,310.167 264.5,306.5C 260.833,306.5 257.167,306.5 253.5,306.5C 253.5,300.833 253.5,295.167 253.5,289.5C 257.167,289.5 260.833,289.5 264.5,289.5C 264.5,285.833 264.5,282.167 264.5,278.5 Z"/></g>
<g><path style="opacity:1" fill="#df6d67" d="M 264.5,278.5 C 264.5,282.167 264.5,285.833 264.5,289.5C 260.833,289.5 257.167,289.5 253.5,289.5C 256.625,288.521 259.958,288.187 263.5,288.5C 263.187,284.958 263.521,281.625 264.5,278.5 Z"/></g>
<g><path style="opacity:1" fill="#a27738" d="M 229.5,349.5 C 244.528,347.767 258.194,351.101 270.5,359.5C 258.834,367.133 249.667,377.133 243,389.5C 239.127,392.763 234.627,394.43 229.5,394.5C 208.241,388.894 190.741,394.56 177,411.5C 178.111,418.078 178.444,424.745 178,431.5C 175.936,432.591 173.769,432.758 171.5,432C 165.394,425.536 163.894,418.036 167,409.5C 171.833,402 178,395.833 185.5,391C 197.711,384.728 210.044,378.728 222.5,373C 229.263,366.44 231.597,358.606 229.5,349.5 Z"/></g>
<g><path style="opacity:1" fill="#67442e" d="M 360.5,358.5 C 362.527,358.338 364.527,358.505 366.5,359C 373.597,368.1 381.431,376.6 390,384.5C 391.184,409.359 388.184,433.692 381,457.5C 377.72,469.761 371.554,480.261 362.5,489C 358.698,491.035 355.531,490.202 353,486.5C 352.333,484.5 352.333,482.5 353,480.5C 364.828,467.161 371.495,451.494 373,433.5C 375.07,422.242 375.737,410.908 375,399.5C 369.588,386.016 364.755,372.349 360.5,358.5 Z"/></g>
<g><path style="opacity:1" fill="#67442d" d="M 270.5,381.5 C 274.331,387.835 276.498,394.835 277,402.5C 277.719,429.512 277.386,456.512 276,483.5C 272.107,490.716 266.607,492.549 259.5,489C 257.114,486.293 256.948,483.46 259,480.5C 265.246,475.695 269.246,469.362 271,461.5C 271.667,454.5 271.667,447.5 271,440.5C 267.546,426.303 263.379,412.303 258.5,398.5C 261.267,391.967 265.267,386.3 270.5,381.5 Z"/></g>
</svg>
