<?xml version="1.0" encoding="UTF-8"?>
<!DOCTYPE svg PUBLIC "-//W3C//DTD SVG 1.1//EN" "http://www.w3.org/Graphics/SVG/1.1/DTD/svg11.dtd">
<svg xmlns="http://www.w3.org/2000/svg" version="1.1" width="618px" height="618px" style="shape-rendering:geometricPrecision; text-rendering:geometricPrecision; image-rendering:optimizeQuality; fill-rule:evenodd; clip-rule:evenodd" xmlns:xlink="http://www.w3.org/1999/xlink">
<g><path style="opacity:0.969" fill="#010000" d="M 408.5,209.5 C 405.925,205.149 406.092,200.816 409,196.5C 413.548,185.892 419.715,176.392 427.5,168C 445.089,156.855 459.589,160.022 471,177.5C 482.262,195.756 480.596,212.756 466,228.5C 457.98,235.512 449.147,241.345 439.5,246C 436.07,246.956 432.57,247.456 429,247.5C 422.746,246.747 416.579,245.581 410.5,244C 404.833,243.833 399.167,243.667 393.5,243.5C 374.411,244.323 355.411,245.99 336.5,248.5C 318.255,249.965 300.588,247.465 283.5,241C 278.148,238.661 273.148,235.828 268.5,232.5C 265.196,230.027 262.362,227.027 260,223.5C 248.718,202.317 239.384,180.317 232,157.5C 230.833,156.333 229.667,155.167 228.5,154C 210.36,147.599 191.693,144.932 172.5,146C 171.167,146.667 169.833,147.333 168.5,148C 165.445,152.135 162.945,156.635 161,161.5C 158.011,165.491 154.178,168.324 149.5,170C 141.833,170.333 134.167,170.667 126.5,171C 125.584,171.374 124.75,171.874 124,172.5C 124.947,179.74 125.614,187.074 126,194.5C 129.721,200.872 135.221,205.039 142.5,207C 156.356,207.723 168.19,212.89 178,222.5C 187.873,236.914 195.04,252.581 199.5,269.5C 202.547,281.993 204.714,294.66 206,307.5C 208.049,319.603 213.716,329.603 223,337.5C 225.433,341.367 227.6,345.367 229.5,349.5C 231.597,358.606 229.263,366.44 222.5,373C 210.044,378.728 197.711,384.728 185.5,391C 178,395.833 171.833,402 167,409.5C 163.894,418.036 165.394,425.536 171.5,432C 173.769,432.758 175.936,432.591 178,431.5C 178.444,424.745 178.111,418.078 177,411.5C 190.741,394.56 208.241,388.894 229.5,394.5C 234.627,394.43 239.127,392.763 243,389.5C 249.667,377.133 258.834,367.133 270.5,359.5C 289.364,348.658 309.697,342.658 331.5,341.5C 344.449,340.316 357.449,340.483 370.5,342C 372.5,343 374.5,344 376.5,345C 383.764,354.267 391.764,362.934 400.5,371C 415.37,383.682 430.87,395.515 447,406.5C 457.738,421.843 461.738,438.843 459,457.5C 458.306,463.971 456.973,470.304 455,476.5C 453.28,487.1 457.78,490.934 468.5,488C 469,487.5 469.5,487 470,486.5C 470.167,483.333 470.333,480.167 470.5,477C 468.624,447.027 465.791,417.194 462,387.5C 459.091,380.676 455.424,374.342 451,368.5C 446.77,353.449 445.437,338.116 447,322.5C 447.947,308.16 448.947,293.827 450,279.5C 452.285,276.108 455.452,274.441 459.5,274.5C 464.222,275.56 466.888,278.56 467.5,283.5C 466.116,301.133 465.116,318.8 464.5,336.5C 464.036,345.416 465.202,354.082 468,362.5C 475.78,372.497 480.447,383.831 482,396.5C 483.78,424.86 485.947,453.193 488.5,481.5C 486.985,500.494 476.651,508.661 457.5,506C 444.218,503.218 437.218,495.051 436.5,481.5C 437.679,473.45 439.179,465.45 441,457.5C 443.391,443.618 441.057,430.618 434,418.5C 425.388,412.887 417.054,406.887 409,400.5C 407.546,427.441 401.879,453.441 392,478.5C 387.033,488.138 380.533,496.638 372.5,504C 359.647,510.28 348.48,508.113 339,497.5C 333,487.833 333,478.167 339,468.5C 346.231,462.045 350.897,454.045 353,444.5C 355.734,432.298 357.567,419.964 358.5,407.5C 352.627,391.212 346.96,374.879 341.5,358.5C 324.574,358.654 308.24,361.821 292.5,368C 290.126,368.848 288.126,370.181 286.5,372C 291.29,382.659 294.123,393.826 295,405.5C 295.738,429.181 295.405,452.848 294,476.5C 292.649,501.098 279.816,511.264 255.5,507C 240.059,498.672 236.226,486.505 244,470.5C 246.667,467.833 249.333,465.167 252,462.5C 254.325,451.346 253.658,440.346 250,429.5C 247.864,422.758 245.531,416.091 243,409.5C 233.748,413.193 224.415,413.193 215,409.5C 209.097,410.134 203.597,411.968 198.5,415C 195.183,418.22 194.517,422.053 196.5,426.5C 195.812,443.362 187.145,451.195 170.5,450C 159.855,448.021 153.022,441.854 150,431.5C 144.921,415.06 148.421,400.727 160.5,388.5C 174.477,376.005 190.477,366.839 208.5,361C 210.911,360.144 212.244,358.477 212.5,356C 212.007,353.181 210.84,350.681 209,348.5C 198.423,338.35 191.756,326.017 189,311.5C 187.443,283.254 179.11,257.254 164,233.5C 160.032,230.098 155.532,227.598 150.5,226C 114.591,221.398 100.424,201.231 108,165.5C 110.232,160.269 114.065,156.769 119.5,155C 127.757,153.76 136.091,153.093 144.5,153C 147.555,148.865 150.055,144.365 152,139.5C 159.893,130.92 169.726,126.92 181.5,127.5C 199.618,128.157 217.285,131.324 234.5,137C 241,139.5 245.5,144 248,150.5C 255.106,171.817 263.773,192.484 274,212.5C 278.316,218.14 283.816,222.306 290.5,225C 303.071,229.697 316.071,231.863 329.5,231.5C 351.773,228.938 374.107,226.938 396.5,225.5C 403.535,225.54 410.535,226.04 417.5,227C 422.189,228.342 426.855,229.342 431.5,230C 444.508,225.321 454.008,216.821 460,204.5C 460.992,195.311 458.159,187.478 451.5,181C 446.901,177.563 442.568,177.897 438.5,182C 437.12,183.925 435.62,185.759 434,187.5C 429.455,195.136 425.289,202.969 421.5,211C 416.594,214.176 412.261,213.676 408.5,209.5 Z"/></g>
<g><path style="opacity:0.995" fill="#a47838" d="M 459.5,274.5 C 455.452,274.441 452.285,276.108 450,279.5C 448.947,293.827 447.947,308.16 447,322.5C 445.437,338.116 446.77,353.449 451,368.5C 455.424,374.342 459.091,380.676 462,387.5C 465.791,417.194 468.624,447.027 470.5,477C 470.333,480.167 470.167,483.333 470,486.5C 469.5,487 469,487.5 468.5,488C 457.78,490.934 453.28,487.1 455,476.5C 456.973,470.304 458.306,463.971 459,457.5C 461.738,438.843 457.738,421.843 447,406.5C 430.87,395.515 415.37,383.682 400.5,371C 391.764,362.934 383.764,354.267 376.5,345C 374.5,344 372.5,343 370.5,342C 357.449,340.483 344.449,340.316 331.5,341.5C 326.217,310.099 327.884,279.099 336.5,248.5C 355.411,245.99 374.411,244.323 393.5,243.5C 399.167,243.667 404.833,243.833 410.5,244C 416.579,245.581 422.746,246.747 429,247.5C 432.57,247.456 436.07,246.956 439.5,246C 449.147,241.345 457.98,235.512 466,228.5C 480.596,212.756 482.262,195.756 471,177.5C 459.589,160.022 445.089,156.855 427.5,168C 419.715,176.392 413.548,185.892 409,196.5C 406.092,200.816 405.925,205.149 408.5,209.5C 406.983,209.489 405.816,208.823 405,207.5C 400.314,198.944 399.314,189.944 402,180.5C 416.651,137.955 444.151,126.455 484.5,146C 507.89,160.503 514.723,180.669 505,206.5C 501.759,213.989 497.759,220.989 493,227.5C 485.371,236.797 477.371,245.797 469,254.5C 464.476,260.548 461.309,267.214 459.5,274.5 Z"/></g>
<g><path style="opacity:1" fill="#a47838" d="M 268.5,232.5 C 264.53,237.315 260.697,242.315 257,247.5C 241.475,264.178 222.308,271.511 199.5,269.5C 195.04,252.581 187.873,236.914 178,222.5C 168.19,212.89 156.356,207.723 142.5,207C 135.221,205.039 129.721,200.872 126,194.5C 125.614,187.074 124.947,179.74 124,172.5C 124.75,171.874 125.584,171.374 126.5,171C 134.167,170.667 141.833,170.333 149.5,170C 154.178,168.324 158.011,165.491 161,161.5C 162.945,156.635 165.445,152.135 168.5,148C 169.833,147.333 171.167,146.667 172.5,146C 191.693,144.932 210.36,147.599 228.5,154C 229.667,155.167 230.833,156.333 232,157.5C 239.384,180.317 248.718,202.317 260,223.5C 262.362,227.027 265.196,230.027 268.5,232.5 Z"/></g>
<g><path style="opacity:1" fill="#d12f27" d="M 268.5,232.5 C 273.148,235.828 278.148,238.661 283.5,241C 300.588,247.465 318.255,249.965 336.5,248.5C 327.884,279.099 326.217,310.099 331.5,341.5C 309.697,342.658 289.364,348.658 270.5,359.5C 258.194,351.101 244.528,347.767 229.5,349.5C 227.6,345.367 225.433,341.367 223,337.5C 213.716,329.603 208.049,319.603 206,307.5C 204.714,294.66 202.547,281.993 199.5,269.5C 222.308,271.511 241.475,264.178 257,247.5C 260.697,242.315 264.53,237.315 268.5,232.5 Z"/></g>
<g><path style="opacity:1" fill="#fefdfd" d="M 264.5,278.5 C 270.167,278.5 275.833,278.5 281.5,278.5C 281.5,282.167 281.5,285.833 281.5,289.5C 285.167,289.5 288.833,289.5 292.5,289.5C 292.5,295.167 292.5,300.833 292.5,306.5C 288.833,306.5 285.167,306.5 281.5,306.5C 281.5,310.167 281.5,313.833 281.5,317.5C 275.833,317.5 270.167,317.5 264.5,317.5C 264.5,313.833 264.5,310.167 264.5,306.5C 260.833,306.5 257.167,306.5 253.5,306.5C 253.5,300.833 253.5,295.167 253.5,289.5C 257.167,289.5 260.833,289.5 264.5,289.5C 264.5,285.833 264.5,282.167 264.5,278.5 Z"/></g>
<g><path style="opacity:1" fill="#df6d67" d="M 264.5,278.5 C 264.5,282.167 264.5,285.833 264.5,289.5C 260.833,289.5 257.167,289.5 253.5,289.5C 256.625,288.521 259.958,288.187 263.5,288.5C 263.187,284.958 263.521,281.625 264.5,278.5 Z"/></g>
<g><path style="opacity:1" fill="#a27738" d="M 229.5,349.5 C 244.528,347.767 258.194,351.101 270.5,359.5C 258.834,367.133 249.667,377.133 243,389.5C 239.127,392.763 234.627,394.43 229.5,394.5C 208.241,388.894 190.741,394.56 177,411.5C 178.111,418.078 178.444,424.745 178,431.5C 175.936,432.591 173.769,432.758 171.5,432C 165.394,425.536 163.894,418.036 167,409.5C 171.833,402 178,395.833 185.5,391C 197.711,384.728 210.044,378.728 222.5,373C 229.263,366.44 231.597,358.606 229.5,349.5 Z"/></g>
<g><path style="opacity:1" fill="#67442e" d="M 360.5,358.5 C 362.527,358.338 364.527,358.505 366.5,359C 373.597,368.1 381.431,376.6 390,384.5C 391.184,409.359 388.184,433.692 381,457.5C 377.72,469.761 371.554,480.261 362.5,489C 358.698,491.035 355.531,490.202 353,486.5C 352.333,484.5 352.333,482.5 353,480.5C 364.828,467.161 371.495,451.494 373,433.5C 375.07,422.242 375.737,410.908 375,399.5C 369.588,386.016 364.755,372.349 360.5,358.5 Z"/></g>
<g><path style="opacity:1" fill="#67442d" d="M 270.5,381.5 C 274.331,387.835 276.498,394.835 277,402.5C 277.719,429.512 277.386,456.512 276,483.5C 272.107,490.716 266.607,492.549 259.5,489C 257.114,486.293 256.948,483.46 259,480.5C 264.582,476.568 268.249,471.235 270,464.5C 271.488,456.555 271.822,448.555 271,440.5C 267.546,426.303 263.379,412.303 258.5,398.5C 261.267,391.967 265.267,386.3 270.5,381.5 Z"/></g>
</svg>
