<?xml version="1.0" encoding="UTF-8"?>
<!DOCTYPE svg PUBLIC "-//W3C//DTD SVG 1.1//EN" "http://www.w3.org/Graphics/SVG/1.1/DTD/svg11.dtd">
<svg xmlns="http://www.w3.org/2000/svg" version="1.1" width="460px" height="190px" style="shape-rendering:geometricPrecision; text-rendering:geometricPrecision; image-rendering:optimizeQuality; fill-rule:evenodd; clip-rule:evenodd" xmlns:xlink="http://www.w3.org/1999/xlink">
<g><path style="opacity:1" fill="#fefefe" d="M -0.5,-0.5 C 152.833,-0.5 306.167,-0.5 459.5,-0.5C 459.5,62.8333 459.5,126.167 459.5,189.5C 306.167,189.5 152.833,189.5 -0.5,189.5C -0.5,126.167 -0.5,62.8333 -0.5,-0.5 Z"/></g>
<g><path style="opacity:1" fill="#100d0c" d="M 259.5,62.5 C 259.833,61.1667 260.167,59.8333 260.5,58.5C 262.456,55.4611 264.79,52.6278 267.5,50C 275.736,48.7351 280.402,52.2351 281.5,60.5C 280.23,68.9365 275.397,73.9365 267,75.5C 257.094,74.0536 247.261,74.3869 237.5,76.5C 230.381,76.6046 223.714,74.938 217.5,71.5C 216.542,70.0384 215.376,68.7051 214,67.5C 210.923,60.5182 207.756,53.6848 204.5,47C 198.649,44.8817 192.649,44.215 186.5,45C 184.015,51.4111 179.348,53.9111 172.5,52.5C 172.933,55.1656 173.433,57.8323 174,60.5C 178.672,62.8867 183.505,65.0533 188.5,67C 191.833,71.8327 194.5,76.9994 196.5,82.5C 196.917,86.8346 197.417,91.1679 198,95.5C 199.933,99.9166 202.433,103.917 205.5,107.5C 205.683,109.936 205.016,112.103 203.5,114C 197.316,116.054 191.816,119.22 187,123.5C 185.627,125.695 185.294,128.029 186,130.5C 186.71,131.973 187.876,132.64 189.5,132.5C 188.618,128.091 189.952,124.591 193.5,122C 198.386,120.776 203.386,120.109 208.5,120C 211.001,116.333 214.001,113.166 217.5,110.5C 223.32,106.893 229.653,104.893 236.5,104.5C 241.297,104.121 245.964,104.621 250.5,106C 256.783,113.289 263.949,119.456 272,124.5C 273,126.167 274,127.833 275,129.5C 275.546,136.184 275.38,142.851 274.5,149.5C 276.167,149.5 277.833,149.5 279.5,149.5C 278.888,139.487 278.054,129.487 277,119.5C 275.632,116.814 274.299,114.147 273,111.5C 272.333,102.833 272.333,94.1667 273,85.5C 273.671,84.7476 274.504,84.4142 275.5,84.5C 277.309,92.7755 278.142,101.442 278,110.5C 280.478,113.789 282.144,117.456 283,121.5C 283.875,131.162 284.208,140.828 284,150.5C 279.748,156.653 275.081,156.986 270,151.5C 270,144.833 270,138.167 270,131.5C 267.642,127.642 264.475,124.642 260.5,122.5C 259.98,132.889 257.147,142.555 252,151.5C 247.884,156.249 243.551,156.582 239,152.5C 236.563,147.692 237.563,143.692 242,140.5C 245.917,129.92 245.083,119.754 239.5,110C 233.37,109.426 227.703,110.759 222.5,114C 223.714,116.351 224.548,118.851 225,121.5C 225.667,129.5 225.667,137.5 225,145.5C 224.573,153.595 220.406,156.761 212.5,155C 207.412,150.989 207.245,146.822 212,142.5C 213.138,136.655 212.305,131.155 209.5,126C 206.375,126.788 203.208,126.621 200,125.5C 198.373,125.625 196.873,126.125 195.5,127C 195.881,134.957 192.215,138.29 184.5,137C 178.66,129.718 179.326,123.051 186.5,117C 191.227,114.307 195.894,111.64 200.5,109C 194.729,102.695 191.895,95.1954 192,86.5C 190.899,79.1148 187.399,73.2815 181.5,69C 170.458,67.6232 165.958,61.4565 168,50.5C 170.969,47.0459 174.802,45.5459 179.5,46C 180.79,43.708 182.457,41.708 184.5,40C 191.982,39.0582 199.315,39.7248 206.5,42C 207.931,42.4652 209.097,43.2986 210,44.5C 212.725,51.6161 215.725,58.6161 219,65.5C 220.731,67.6166 222.898,69.1166 225.5,70C 239.864,69.8213 254.197,69.8213 268.5,70C 276.563,66.9126 278.229,61.9126 273.5,55C 272.167,54.3333 270.833,54.3333 269.5,55C 267.455,57.5864 265.789,60.4198 264.5,63.5C 262.418,64.8943 260.751,64.561 259.5,62.5 Z"/></g>
<g><path style="opacity:1" fill="#a57a3a" d="M 275.5,83.5 C 273.914,82.5868 272.414,82.5868 271,83.5C 270.833,86 270.667,88.5 270.5,91C 271.812,98.9035 271.812,106.57 270.5,114C 272.992,116.812 274.492,119.978 275,123.5C 266.563,118.062 259.063,111.562 252.5,104C 251.271,103.219 249.938,102.719 248.5,102.5C 245.217,103.327 241.884,103.66 238.5,103.5C 237.52,95.4477 237.853,87.1144 239.5,78.5C 245.157,77.8344 250.823,77.1677 256.5,76.5C 261.206,77.3388 265.872,77.6721 270.5,77.5C 282.728,72.9713 286.561,64.6379 282,52.5C 280.5,51 279,49.5 277.5,48C 273.5,48.6667 269.5,48.6667 265.5,48C 262.621,50.7813 260.955,54.2813 260.5,58.5C 260.167,59.8333 259.833,61.1667 259.5,62.5C 257.6,48.2288 263.933,41.3955 278.5,42C 289.687,45.8749 293.187,53.3749 289,64.5C 284.49,70.8625 279.99,77.1959 275.5,83.5 Z"/></g>
<g><path style="opacity:1" fill="#a37738" d="M 217.5,71.5 C 212.608,79.0316 205.608,82.6983 196.5,82.5C 194.5,76.9994 191.833,71.8327 188.5,67C 183.505,65.0533 178.672,62.8867 174,60.5C 173.433,57.8323 172.933,55.1656 172.5,52.5C 179.348,53.9111 184.015,51.4111 186.5,45C 192.649,44.215 198.649,44.8817 204.5,47C 207.756,53.6848 210.923,60.5182 214,67.5C 215.376,68.7051 216.542,70.0384 217.5,71.5 Z"/></g>
<g><path style="opacity:1" fill="#cf2f26" d="M 217.5,71.5 C 223.714,74.938 230.381,76.6046 237.5,76.5C 235.362,85.7664 235.029,95.0998 236.5,104.5C 229.653,104.893 223.32,106.893 217.5,110.5C 214.032,107.886 210.032,106.886 205.5,107.5C 202.433,103.917 199.933,99.9166 198,95.5C 197.417,91.1679 196.917,86.8346 196.5,82.5C 205.608,82.6983 212.608,79.0316 217.5,71.5 Z"/></g>
<g><path style="opacity:1" fill="#e37e79" d="M 221.5,85.5 C 219.833,85.5 218.167,85.5 216.5,85.5C 216.737,86.791 216.404,87.791 215.5,88.5C 215.5,87.1667 215.5,85.8333 215.5,84.5C 217.735,84.2053 219.735,84.5386 221.5,85.5 Z"/></g>
<g><path style="opacity:1" fill="#fdf7f7" d="M 221.5,85.5 C 221.5,86.5 221.5,87.5 221.5,88.5C 222.5,88.5 223.5,88.5 224.5,88.5C 224.5,90.1667 224.5,91.8333 224.5,93.5C 223.167,93.5 221.833,93.5 220.5,93.5C 220.5,94.5 220.5,95.5 220.5,96.5C 219.167,96.5 217.833,96.5 216.5,96.5C 216.5,95.5 216.5,94.5 216.5,93.5C 215.167,93.5 213.833,93.5 212.5,93.5C 212.5,91.8333 212.5,90.1667 212.5,88.5C 213.5,88.5 214.5,88.5 215.5,88.5C 216.404,87.791 216.737,86.791 216.5,85.5C 218.167,85.5 219.833,85.5 221.5,85.5 Z"/></g>
<g><path style="opacity:1" fill="#eeaeaa" d="M 212.5,93.5 C 213.833,93.5 215.167,93.5 216.5,93.5C 216.5,94.5 216.5,95.5 216.5,96.5C 217.833,96.5 219.167,96.5 220.5,96.5C 220.5,95.5 220.5,94.5 220.5,93.5C 221.833,93.5 223.167,93.5 224.5,93.5C 223.791,94.404 222.791,94.7373 221.5,94.5C 221.5,95.5 221.5,96.5 221.5,97.5C 219.5,97.5 217.5,97.5 215.5,97.5C 215.5,96.5 215.5,95.5 215.5,94.5C 214.209,94.7373 213.209,94.404 212.5,93.5 Z"/></g>
<g><path style="opacity:1" fill="#996f34" d="M 275.5,83.5 C 275.5,83.8333 275.5,84.1667 275.5,84.5C 274.504,84.4142 273.671,84.7476 273,85.5C 272.333,94.1667 272.333,102.833 273,111.5C 274.299,114.147 275.632,116.814 277,119.5C 278.054,129.487 278.888,139.487 279.5,149.5C 277.833,149.5 276.167,149.5 274.5,149.5C 275.38,142.851 275.546,136.184 275,129.5C 274,127.833 273,126.167 272,124.5C 263.949,119.456 256.783,113.289 250.5,106C 245.964,104.621 241.297,104.121 236.5,104.5C 235.029,95.0998 235.362,85.7664 237.5,76.5C 247.261,74.3869 257.094,74.0536 267,75.5C 275.397,73.9365 280.23,68.9365 281.5,60.5C 280.402,52.2351 275.736,48.7351 267.5,50C 264.79,52.6278 262.456,55.4611 260.5,58.5C 260.955,54.2813 262.621,50.7813 265.5,48C 269.5,48.6667 273.5,48.6667 277.5,48C 279,49.5 280.5,51 282,52.5C 286.561,64.6379 282.728,72.9713 270.5,77.5C 265.872,77.6721 261.206,77.3388 256.5,76.5C 250.823,77.1677 245.157,77.8344 239.5,78.5C 237.853,87.1144 237.52,95.4477 238.5,103.5C 241.884,103.66 245.217,103.327 248.5,102.5C 249.938,102.719 251.271,103.219 252.5,104C 259.063,111.562 266.563,118.062 275,123.5C 274.492,119.978 272.992,116.812 270.5,114C 271.812,106.57 271.812,98.9035 270.5,91C 270.667,88.5 270.833,86 271,83.5C 272.414,82.5868 273.914,82.5868 275.5,83.5 Z"/></g>
<g><path style="opacity:1" fill="#9b7135" d="M 205.5,107.5 C 210.032,106.886 214.032,107.886 217.5,110.5C 214.001,113.166 211.001,116.333 208.5,120C 203.386,120.109 198.386,120.776 193.5,122C 189.952,124.591 188.618,128.091 189.5,132.5C 187.876,132.64 186.71,131.973 186,130.5C 185.294,128.029 185.627,125.695 187,123.5C 191.816,119.22 197.316,116.054 203.5,114C 205.016,112.103 205.683,109.936 205.5,107.5 Z"/></g>
<g><path style="opacity:1" fill="#62402a" d="M 245.5,109.5 C 248.391,111.884 251.224,114.551 254,117.5C 255.662,129.22 253.162,139.886 246.5,149.5C 245.675,150.386 244.675,150.719 243.5,150.5C 245.284,145.577 247.117,140.577 249,135.5C 249.554,132.342 250.054,129.175 250.5,126C 249.328,120.32 247.661,114.82 245.5,109.5 Z"/></g>
<g><path style="opacity:1" fill="#63412b" d="M 216.5,117.5 C 217.75,117.577 218.583,118.244 219,119.5C 219.667,129.5 219.667,139.5 219,149.5C 212.695,150.55 212.029,148.883 217,144.5C 217.906,142.256 218.406,139.923 218.5,137.5C 217.579,132.402 216.246,127.402 214.5,122.5C 214.902,120.7 215.569,119.033 216.5,117.5 Z"/></g>
</svg>
